<svg width="300" height="301" fill="none" xmlns="http://www.w3.org/2000/svg"><path d="M105.372 55.788c24.622-24.71 64.634-24.71 89.256 0l50.064 50.244c24.496 24.585 24.496 64.351 0 88.936l-50.064 50.244c-24.622 24.71-64.634 24.71-89.256 0l-50.064-50.244c-24.496-24.585-24.496-64.351 0-88.936l50.064-50.244Z" fill="#fff"/><path d="M165.274 71.268c26.761-4.021 51.716 14.413 55.737 41.175l7.978 53.088c4.021 26.761-14.413 51.716-41.174 55.737l-53.088 7.978c-26.762 4.022-51.717-14.413-55.738-41.174l-7.978-53.088c-4.021-26.762 14.413-51.716 41.174-55.738l53.089-7.978Z" fill="#0C293C"/><mask id="mask0_98_41" style="mask-type:alpha" maskUnits="userSpaceOnUse" x="70" y="70" width="160" height="160"><path d="M165.274 71.268c26.761-4.021 51.716 14.413 55.737 41.175l7.978 53.088c4.022 26.761-14.413 51.716-41.174 55.737l-53.088 7.978c-26.762 4.022-51.716-14.413-55.738-41.174l-7.978-53.088c-4.021-26.762 14.413-51.716 41.174-55.738l53.089-7.978Z" fill="#0C293C"/></mask><g mask="url('#mask0_98_41')"><path d="M136.014 119.538v91.614h4.241v-91.614h-4.241Z" fill="url('#paint0_linear_98_41')"/><path d="M124.986 140.745V212h3.393v-71.255h-3.393Z" fill="url('#paint1_linear_98_41')"/><path d="M113.959 161.103V212h3.393v-50.897h-3.393Z" fill="url('#paint2_linear_98_41')"/><path d="M102.931 157.71V212h3.393v-54.29h-3.393Z" fill="url('#paint3_linear_98_41')"/><path d="M91.903 162.8V212h3.394v-49.2h-3.394Z" fill="url('#paint4_linear_98_41')"/><path d="M80.876 170.435V212h2.545v-41.565h-2.545Z" fill="url('#paint5_linear_98_41')"/><path d="M69 175.524V212h3.393v-36.476H69Z" fill="url('#paint6_linear_98_41')"/><path d="M214.904 167.89V212h3.393v-44.11h-3.393Z" fill="url('#paint7_linear_98_41')"/><path d="M203.876 155.166V212h2.545v-56.834h-2.545Z" fill="url('#paint8_linear_98_41')"/><path d="M192 132.262V212h4.241v-79.738H192Z" fill="url('#paint9_linear_98_41')"/><path d="M180.972 118.69V212h3.394v-93.31h-3.394Z" fill="url('#paint10_linear_98_41')"/><path d="M169.945 92.393V212h3.393V92.393h-3.393Z" fill="url('#paint11_linear_98_41')"/><path d="M158.917 89v123h3.393V89h-3.393Z" fill="url('#paint12_linear_98_41')"/><path d="M147.89 98.331V212h3.393V98.331h-3.393Z" fill="url('#paint13_linear_98_41')"/></g><defs><linearGradient id="paint0_linear_98_41" x1="138.094" y1="211.184" x2="138.094" y2="119.671" gradientUnits="userSpaceOnUse"><stop offset=".196" stop-color="#55CBF2" stop-opacity="0"/><stop offset="1" stop-color="#55CBF2"/></linearGradient><linearGradient id="paint1_linear_98_41" x1="126.67" y1="212.048" x2="126.67" y2="140.879" gradientUnits="userSpaceOnUse"><stop offset=".196" stop-color="#55CBF2" stop-opacity="0"/><stop offset="1" stop-color="#55CBF2"/></linearGradient><linearGradient id="paint2_linear_98_41" x1="115.661" y1="212.048" x2="115.661" y2="161.042" gradientUnits="userSpaceOnUse"><stop offset=".196" stop-color="#55CBF2" stop-opacity="0"/><stop offset="1" stop-color="#55CBF2"/></linearGradient><linearGradient id="paint3_linear_98_41" x1="104.652" y1="212.048" x2="104.652" y2="157.704" gradientUnits="userSpaceOnUse"><stop offset=".196" stop-color="#55CBF2" stop-opacity="0"/><stop offset="1" stop-color="#55CBF2"/></linearGradient><linearGradient id="paint4_linear_98_41" x1="93.643" y1="212.048" x2="93.643" y2="162.753" gradientUnits="userSpaceOnUse"><stop offset=".196" stop-color="#55CBF2" stop-opacity="0"/><stop offset="1" stop-color="#55CBF2"/></linearGradient><linearGradient id="paint5_linear_98_41" x1="82.195" y1="212.049" x2="82.195" y2="170.387" gradientUnits="userSpaceOnUse"><stop offset=".196" stop-color="#55CBF2" stop-opacity="0"/><stop offset="1" stop-color="#55CBF2"/></linearGradient><linearGradient id="paint6_linear_98_41" x1="70.777" y1="212.048" x2="70.777" y2="175.578" gradientUnits="userSpaceOnUse"><stop offset=".196" stop-color="#55CBF2" stop-opacity="0"/><stop offset="1" stop-color="#55CBF2"/></linearGradient><linearGradient id="paint7_linear_98_41" x1="216.591" y1="211.882" x2="216.591" y2="168.023" gradientUnits="userSpaceOnUse"><stop offset=".196" stop-color="#55CBF2" stop-opacity="0"/><stop offset="1" stop-color="#55CBF2"/></linearGradient><linearGradient id="paint8_linear_98_41" x1="205.157" y1="211.883" x2="205.157" y2="155.319" gradientUnits="userSpaceOnUse"><stop offset=".196" stop-color="#55CBF2" stop-opacity="0"/><stop offset="1" stop-color="#55CBF2"/></linearGradient><linearGradient id="paint9_linear_98_41" x1="193.965" y1="211.882" x2="193.965" y2="132.316" gradientUnits="userSpaceOnUse"><stop offset=".196" stop-color="#55CBF2" stop-opacity="0"/><stop offset="1" stop-color="#55CBF2"/></linearGradient><linearGradient id="paint10_linear_98_41" x1="182.562" y1="211.881" x2="182.562" y2="118.85" gradientUnits="userSpaceOnUse"><stop offset=".196" stop-color="#55CBF2" stop-opacity="0"/><stop offset="1" stop-color="#55CBF2"/></linearGradient><linearGradient id="paint11_linear_98_41" x1="171.553" y1="211.881" x2="171.553" y2="92.26" gradientUnits="userSpaceOnUse"><stop offset=".196" stop-color="#55CBF2" stop-opacity="0"/><stop offset="1" stop-color="#55CBF2"/></linearGradient><linearGradient id="paint12_linear_98_41" x1="160.544" y1="211.881" x2="160.544" y2="88.987" gradientUnits="userSpaceOnUse"><stop offset=".196" stop-color="#55CBF2" stop-opacity="0"/><stop offset="1" stop-color="#55CBF2"/></linearGradient><linearGradient id="paint13_linear_98_41" x1="149.535" y1="211.881" x2="149.535" y2="98.438" gradientUnits="userSpaceOnUse"><stop offset=".196" stop-color="#55CBF2" stop-opacity="0"/><stop offset="1" stop-color="#55CBF2"/></linearGradient></defs></svg>