<svg width="286" height="287" fill="none" xmlns="http://www.w3.org/2000/svg"><path d="M71.252 67.338c15.705-31.146 53.73-43.602 84.82-27.785l63.217 32.163c30.933 15.738 43.312 53.528 27.686 84.516l-31.936 63.333c-15.705 31.147-53.73 43.602-84.82 27.785l-63.218-32.163C36.07 199.45 23.69 161.66 39.316 130.671l31.936-63.333Z" fill="#fff"/><path d="M107.935 70.849c19.026-19.245 50.05-19.424 69.296-.398l38.178 37.742c19.245 19.025 19.423 50.05.398 69.295l-37.742 38.178c-19.026 19.245-50.05 19.423-69.295.398l-38.178-37.742c-19.246-19.025-19.424-50.05-.398-69.295l37.741-38.178Z" fill="#0C293C"/><path d="m181.096 114.365-37.414-16.034a3.001 3.001 0 0 0-2.364 0l-37.414 16.034a3 3 0 0 0-1.795 3.13l5.113 40.904a7.992 7.992 0 0 0 2.817 5.153l30.54 25.451a3.002 3.002 0 0 0 3.842 0l30.54-25.451a7.992 7.992 0 0 0 2.817-5.153l5.113-40.904a3 3 0 0 0-1.795-3.13Z" stroke="url('#paint0_linear_98_44')" stroke-width="4" stroke-linecap="round"/><path d="m126 144 16.069 16.069a.5.5 0 0 0 .769-.076L164.5 127.5" stroke="url('#paint1_linear_98_44')" stroke-width="4" stroke-linecap="round"/><defs><linearGradient id="paint0_linear_98_44" x1="140.918" y1="187.915" x2="140.918" y2="99.991" gradientUnits="userSpaceOnUse"><stop offset=".196" stop-color="#55CBF2" stop-opacity="0"/><stop offset="1" stop-color="#55CBF2"/></linearGradient><linearGradient id="paint1_linear_98_44" x1="143" y1="111" x2="143" y2="162.5" gradientUnits="userSpaceOnUse"><stop offset=".196" stop-color="#55CBF2" stop-opacity="0"/><stop offset="1" stop-color="#55CBF2"/></linearGradient></defs></svg>