<svg width="300" height="300" fill="none" xmlns="http://www.w3.org/2000/svg"><path d="M137.347 46.546c31.143-15.712 69.126-3.128 84.726 28.07l31.723 63.441c15.521 31.041 3.015 68.789-27.97 84.422l-63.326 31.95c-31.143 15.713-69.125 3.129-84.726-28.071l-31.722-63.439c-15.522-31.041-3.016-68.79 27.97-84.423l63.325-31.95Z" fill="#fff"/><path d="M189.34 80.08c26.668 4.599 44.559 29.946 39.96 56.614l-9.123 52.903c-4.599 26.669-29.946 44.56-56.614 39.961l-52.903-9.123c-26.669-4.599-44.56-29.946-39.96-56.615l9.123-52.903c4.598-26.668 29.945-44.56 56.614-39.96l52.903 9.123Z" fill="#0C293C"/><path d="M198.296 173.941a50.005 50.005 0 0 0-8.628-43.379A49.995 49.995 0 0 0 150 111a49.999 49.999 0 0 0-48.296 62.941" stroke="url('#paint0_linear_98_42')" stroke-width="4" stroke-linecap="round"/><path d="M154.254 164.235c2.708 3.941.804 9.953-4.254 13.428-5.057 3.476-11.353 3.098-14.061-.842-3.7-5.385-19.034-42.687-22.839-51.999-.203-.496.408-.916.799-.549 7.329 6.89 36.655 34.577 40.355 39.962Z" fill="url('#paint1_linear_98_42')" stroke="url('#paint2_linear_98_42')" stroke-width="4"/><path d="M150 111v11.111" stroke="url('#paint3_linear_98_42')" stroke-width="4" stroke-linecap="round"/><path d="m114.644 125.643 7.857 7.857" stroke="url('#paint4_linear_98_42')" stroke-width="4" stroke-linecap="round"/><path d="m185.356 125.643-7.857 7.857" stroke="url('#paint5_linear_98_42')" stroke-width="4" stroke-linecap="round"/><path d="m198.296 173.939-10.732-2.875" stroke="url('#paint6_linear_98_42')" stroke-width="4" stroke-linecap="round"/><path d="m101.704 173.939 10.732-2.875" stroke="url('#paint7_linear_98_42')" stroke-width="4" stroke-linecap="round"/><defs><linearGradient id="paint0_linear_98_42" x1="147.945" y1="210.903" x2="147.945" y2="110.99" gradientUnits="userSpaceOnUse"><stop offset=".196" stop-color="#55CBF2" stop-opacity="0"/><stop offset="1" stop-color="#55CBF2"/></linearGradient><linearGradient id="paint1_linear_98_42" x1="149.587" y1="177.869" x2="111.863" y2="122.972" gradientUnits="userSpaceOnUse"><stop offset=".196" stop-color="#55CBF2" stop-opacity="0"/><stop offset="1" stop-color="#55CBF2"/></linearGradient><linearGradient id="paint2_linear_98_42" x1="149.587" y1="177.869" x2="111.863" y2="122.972" gradientUnits="userSpaceOnUse"><stop offset=".196" stop-color="#55CBF2" stop-opacity="0"/><stop offset="1" stop-color="#55CBF2"/></linearGradient><linearGradient id="paint3_linear_98_42" x1="150.479" y1="122.1" x2="150.479" y2="110.999" gradientUnits="userSpaceOnUse"><stop offset=".196" stop-color="#55CBF2" stop-opacity="0"/><stop offset="1" stop-color="#55CBF2"/></linearGradient><linearGradient id="paint4_linear_98_42" x1="122.833" y1="133.153" x2="114.983" y2="125.303" gradientUnits="userSpaceOnUse"><stop offset=".196" stop-color="#55CBF2" stop-opacity="0"/><stop offset="1" stop-color="#55CBF2"/></linearGradient><linearGradient id="paint5_linear_98_42" x1="177.167" y1="133.153" x2="185.017" y2="125.303" gradientUnits="userSpaceOnUse"><stop offset=".196" stop-color="#55CBF2" stop-opacity="0"/><stop offset="1" stop-color="#55CBF2"/></linearGradient><linearGradient id="paint6_linear_98_42" x1="187.45" y1="171.53" x2="198.173" y2="174.403" gradientUnits="userSpaceOnUse"><stop offset=".196" stop-color="#55CBF2" stop-opacity="0"/><stop offset="1" stop-color="#55CBF2"/></linearGradient><linearGradient id="paint7_linear_98_42" x1="112.55" y1="171.53" x2="101.827" y2="174.403" gradientUnits="userSpaceOnUse"><stop offset=".196" stop-color="#55CBF2" stop-opacity="0"/><stop offset="1" stop-color="#55CBF2"/></linearGradient></defs></svg>