<svg aria-hidden="true" style="width:0;height:0;position:absolute;overflow:hidden" xmlns="http://www.w3.org/2000/svg"><defs><symbol id="icon-left" viewBox="0 0 31 32"><path fill="#fff" style="fill:var(--color1,#fff)" d="M1.252 14.586a2 2 0 0 0 0 2.829L13.98 30.143a2 2 0 1 0 2.828-2.828L5.494 16.001 16.808 4.687a2 2 0 1 0-2.828-2.828L1.252 14.587zM30.667 14h-28v4h28v-4z"/></symbol><symbol id="icon-right" viewBox="0 0 31 32"><path fill="#fff" style="fill:var(--color1,#fff)" d="M29.414 17.414a2 2 0 0 0 0-2.829L16.686 1.857a2 2 0 1 0-2.828 2.828l11.314 11.314-11.314 11.314a2 2 0 1 0 2.828 2.828l12.728-12.728zM0 18h28v-4H0v4z"/></symbol><symbol id="icon-logo-footer_desctop" viewBox="0 0 229 32"><path fill="#fff" style="fill:var(--color1,#fff)" d="M33.079 20.422a6.568 6.568 0 0 1 5.093-2.413c1.896 0 3.605.802 4.806 2.085L58.451 6.832a3.949 3.949 0 1 1 .744.923L43.708 21.029a6.581 6.581 0 1 1-11.297.377L9.842 8.767a5.265 5.265 0 1 1 .469-1.096l22.768 12.75zM103.855 15.028c-.226 2.539-1.109 4.522-2.651 5.951-1.523 1.41-3.535 2.115-6.036 2.115-2.858 0-5.124-.94-6.798-2.821-1.673-1.899-2.51-4.457-2.51-7.672 0-3.009.837-5.51 2.51-7.503 1.692-2.012 4.024-3.018 6.995-3.018 2.125 0 3.996.574 5.613 1.721s2.52 2.736 2.708 4.767h-2.651c-.301-1.316-.959-2.341-1.974-3.074-1.015-.752-2.266-1.128-3.751-1.128-2.238 0-3.93.79-5.077 2.369-1.128 1.58-1.692 3.526-1.692 5.839 0 2.557.602 4.569 1.805 6.036s2.849 2.2 4.936 2.2c1.711 0 3.075-.489 4.09-1.467 1.015-.997 1.627-2.435 1.833-4.316h2.651zM114.366 7.723v2.482a5.7 5.7 0 0 0-.62-.028c-.771 0-1.439.122-2.003.367-.564.226-1.015.527-1.354.903-.32.376-.583.846-.79 1.41s-.348 1.128-.423 1.692a19.563 19.563 0 0 0-.085 1.918v6.149h-2.397V8.062h2.285v3.131c.959-2.313 2.755-3.469 5.387-3.469zM128.216 8.062l-6.233 16.416c-.245.658-.461 1.166-.649 1.523-.169.376-.423.78-.761 1.213-.32.451-.715.771-1.185.959-.452.207-.987.31-1.608.31-.47 0-1.062-.085-1.777-.254v-2.144c.696.207 1.213.31 1.551.31.79 0 1.354-.404 1.692-1.213l1.128-2.651-5.782-14.47h2.708l4.315 11.593 4.09-11.593h2.51zM132.531 8.062v2.059c1.054-1.674 2.689-2.51 4.908-2.51 2.031 0 3.639.686 4.824 2.059 1.203 1.373 1.805 3.234 1.805 5.585s-.593 4.231-1.777 5.641c-1.166 1.392-2.746 2.087-4.738 2.087-2.088 0-3.714-.799-4.881-2.398v7.644h-2.398V8.062h2.257zm4.542 1.551c-1.391 0-2.491.508-3.3 1.523-.791.997-1.185 2.379-1.185 4.146s.404 3.159 1.212 4.175c.827.997 1.946 1.495 3.356 1.495 1.374 0 2.455-.508 3.244-1.523.791-1.015 1.185-2.398 1.185-4.146 0-1.767-.404-3.15-1.214-4.146-.789-1.015-1.889-1.523-3.3-1.523zM153.228 8.062v1.974h-2.905v9.421c.019.15.076.357.169.621a.76.76 0 0 0 .479.479c.226.075.546.113.96.113.357 0 .789-.028 1.297-.085v2.059c-.677.075-1.287.113-1.833.113-.677 0-1.241-.075-1.692-.226-.45-.151-.799-.32-1.043-.508-.225-.188-.395-.517-.507-.987a7.487 7.487 0 0 1-.198-1.213 33.797 33.797 0 0 1-.028-1.664v-8.123h-2.453V8.062h2.453V3.746h2.398v4.316h2.905zM157.048 9.726c1.279-1.392 3.019-2.087 5.218-2.087s3.911.668 5.134 2.003c1.222 1.335 1.832 3.206 1.832 5.613 0 2.463-.61 4.381-1.832 5.754-1.223 1.373-2.943 2.059-5.163 2.059-2.219 0-3.957-.677-5.217-2.031s-1.89-3.234-1.89-5.641c0-2.388.64-4.278 1.918-5.669zm8.49 1.466c-.808-1.034-1.918-1.551-3.328-1.551s-2.529.517-3.356 1.551c-.828 1.034-1.242 2.416-1.242 4.146 0 1.786.404 3.187 1.214 4.203.827.997 1.975 1.495 3.441 1.495 1.41 0 2.51-.508 3.301-1.523.808-1.015 1.212-2.416 1.212-4.203 0-1.73-.414-3.103-1.241-4.118zM188.795 2.533l7.841 20.083h-2.962l-2.228-6.149h-8.434l-2.285 6.149h-2.82l7.897-20.083h2.99zm1.862 11.819-3.413-9.28-3.469 9.28h6.882zM200.485 8.062v2.059c1.054-1.674 2.689-2.51 4.908-2.51 2.031 0 3.639.686 4.824 2.059 1.203 1.373 1.805 3.234 1.805 5.585s-.593 4.231-1.778 5.641c-1.165 1.392-2.745 2.087-4.738 2.087-2.087 0-3.713-.799-4.879-2.398v7.644h-2.398V8.062h2.257zm4.541 1.551c-1.391 0-2.492.508-3.301 1.523-.789.997-1.184 2.379-1.184 4.146s.404 3.159 1.212 4.175c.827.997 1.946 1.495 3.356 1.495 1.372 0 2.455-.508 3.244-1.523s1.184-2.398 1.184-4.146c0-1.767-.404-3.15-1.212-4.146-.789-1.015-1.889-1.523-3.3-1.523zM217.204 8.062v2.059c1.054-1.674 2.689-2.51 4.908-2.51 2.031 0 3.639.686 4.824 2.059 1.203 1.373 1.805 3.234 1.805 5.585s-.593 4.231-1.777 5.641c-1.166 1.392-2.746 2.087-4.738 2.087-2.088 0-3.714-.799-4.881-2.398v7.644h-2.398V8.062h2.257zm4.542 1.551c-1.391 0-2.491.508-3.3 1.523-.791.997-1.185 2.379-1.185 4.146s.404 3.159 1.212 4.175c.827.997 1.946 1.495 3.356 1.495 1.374 0 2.455-.508 3.244-1.523.791-1.015 1.185-2.398 1.185-4.146 0-1.767-.404-3.15-1.214-4.146-.789-1.015-1.889-1.523-3.3-1.523z"/></symbol><symbol id="icon-logo-footer_mobile" viewBox="0 0 227 32"><path fill="#fff" style="fill:var(--color1,#fff)" d="M32.856 19.993a6.525 6.525 0 0 1 5.059-2.397c1.884 0 3.581.797 4.774 2.071L58.058 6.494a3.922 3.922 0 1 1 1.07 1.19l-15.494 13.28A6.537 6.537 0 1 1 32 21.347L9.551 8.776a5.23 5.23 0 1 1 .691-1.448l22.615 12.664zM103.155 14.636c-.224 2.521-1.102 4.492-2.633 5.911-1.513 1.401-3.511 2.101-5.996 2.101-2.839 0-5.089-.934-6.752-2.802-1.662-1.886-2.493-4.427-2.493-7.62 0-2.988.831-5.472 2.493-7.452 1.681-1.998 3.997-2.998 6.948-2.998 2.111 0 3.969.57 5.575 1.709s2.503 2.718 2.69 4.735h-2.634c-.299-1.307-.952-2.325-1.961-3.054-1.008-.747-2.251-1.121-3.726-1.121-2.223 0-3.904.784-5.043 2.353-1.121 1.569-1.681 3.502-1.681 5.799 0 2.54.598 4.539 1.793 5.995s2.83 2.185 4.903 2.185c1.7 0 3.054-.486 4.062-1.457 1.009-.99 1.616-2.419 1.821-4.287h2.633zM113.596 7.38v2.465a5.633 5.633 0 0 0-.616-.028c-.766 0-1.429.121-1.989.364-.56.224-1.008.523-1.345.896-.317.374-.579.84-.784 1.401s-.346 1.121-.42 1.681c-.056.56-.084 1.195-.084 1.905v6.108h-2.381V7.716h2.269v3.11c.953-2.297 2.736-3.446 5.351-3.446zM127.352 7.716l-6.192 16.305c-.243.654-.458 1.158-.644 1.513-.168.374-.42.775-.756 1.205-.317.448-.71.766-1.177.952-.448.205-.981.308-1.597.308-.467 0-1.055-.084-1.765-.252v-2.129c.691.205 1.205.308 1.541.308.784 0 1.345-.402 1.681-1.205l1.121-2.633-5.743-14.372h2.689l4.287 11.515 4.062-11.515h2.493zM131.639 7.716v2.045c1.046-1.662 2.671-2.493 4.875-2.493 2.017 0 3.614.682 4.791 2.045 1.195 1.363 1.793 3.213 1.793 5.547s-.588 4.202-1.765 5.603c-1.158 1.382-2.727 2.073-4.707 2.073-2.073 0-3.689-.794-4.847-2.381v7.592h-2.381V7.716h2.241zm4.51 1.541c-1.382 0-2.475.504-3.278 1.513-.784.99-1.177 2.363-1.177 4.118s.401 3.138 1.205 4.146c.822.99 1.933 1.485 3.334 1.485 1.363 0 2.437-.504 3.222-1.513s1.177-2.381 1.177-4.118c0-1.756-.402-3.128-1.205-4.118-.784-1.009-1.877-1.513-3.278-1.513zM152.196 7.716v1.961h-2.886v9.357c.019.149.075.355.168.616.093.243.252.402.476.476s.542.112.953.112c.355 0 .784-.028 1.289-.084v2.045c-.672.075-1.279.112-1.821.112-.672 0-1.233-.075-1.681-.224s-.794-.318-1.037-.504c-.224-.187-.392-.514-.504-.98a7.582 7.582 0 0 1-.196-1.205 33.356 33.356 0 0 1-.028-1.653V9.677h-2.437V7.716h2.437V3.43h2.381v4.286h2.886zM155.99 9.369c1.27-1.382 2.998-2.073 5.183-2.073s3.885.663 5.099 1.989 1.821 3.184 1.821 5.575c0 2.447-.606 4.352-1.821 5.715s-2.923 2.045-5.126 2.045c-2.204 0-3.932-.672-5.183-2.017s-1.877-3.213-1.877-5.603c0-2.372.635-4.249 1.905-5.631zm8.432 1.457c-.803-1.027-1.904-1.541-3.306-1.541-1.4 0-2.512.514-3.334 1.541s-1.233 2.4-1.233 4.118c0 1.774.402 3.166 1.205 4.174.822.99 1.961 1.485 3.418 1.485 1.402 0 2.494-.504 3.278-1.513.803-1.008 1.205-2.4 1.205-4.174 0-1.718-.411-3.082-1.234-4.09zM187.523 2.225l7.789 19.947h-2.942l-2.213-6.108h-8.376l-2.27 6.108h-2.802l7.845-19.947h2.97zm1.85 11.738-3.39-9.217-3.446 9.217h6.837zM199.134 7.716v2.045c1.046-1.662 2.67-2.493 4.875-2.493 2.016 0 3.613.682 4.79 2.045 1.195 1.363 1.794 3.213 1.794 5.547s-.589 4.202-1.766 5.603c-1.157 1.382-2.726 2.073-4.706 2.073-2.074 0-3.69-.794-4.848-2.381v7.592h-2.381V7.716h2.242zm4.511 1.541c-1.382 0-2.475.504-3.278 1.513-.784.99-1.176 2.363-1.176 4.118s.402 3.138 1.205 4.146c.822.99 1.933 1.485 3.334 1.485 1.363 0 2.437-.504 3.221-1.513s1.178-2.381 1.178-4.118c0-1.756-.402-3.128-1.205-4.118-.786-1.009-1.877-1.513-3.278-1.513zM215.741 7.716v2.045c1.046-1.662 2.672-2.493 4.875-2.493 2.018 0 3.614.682 4.79 2.045 1.195 1.363 1.794 3.213 1.794 5.547s-.589 4.202-1.765 5.603c-1.158 1.382-2.726 2.073-4.707 2.073-2.074 0-3.688-.794-4.846-2.381v7.592h-2.381V7.716h2.24zm4.512 1.541c-1.382 0-2.475.504-3.278 1.513-.784.99-1.178 2.363-1.178 4.118s.402 3.138 1.205 4.146c.822.99 1.934 1.485 3.334 1.485 1.363 0 2.437-.504 3.222-1.513.784-1.009 1.176-2.381 1.176-4.118 0-1.756-.402-3.128-1.205-4.118-.784-1.009-1.877-1.513-3.277-1.513z"/></symbol><symbol id="icon-logo-header_desktop" viewBox="0 0 219 32"><path fill="#fff" style="fill:var(--color1,#fff)" d="M31.732 20.209a6.302 6.302 0 0 1 4.886-2.315c1.819 0 3.459.769 4.611 2.001L56.072 7.173a3.788 3.788 0 1 1 1.016 1.136l-14.957 12.82a6.313 6.313 0 1 1-11.216.369L9.237 9.358a5.051 5.051 0 1 1 .654-1.38l21.841 12.231zM99.626 15.035c-.216 2.435-1.064 4.338-2.543 5.709-1.461 1.353-3.391 2.029-5.79 2.029-2.742 0-4.915-.902-6.521-2.706-1.605-1.822-2.408-4.275-2.408-7.36 0-2.886.803-5.285 2.408-7.197 1.623-1.93 3.86-2.895 6.71-2.895 2.038 0 3.833.55 5.384 1.65s2.417 2.625 2.598 4.573h-2.543c-.289-1.263-.92-2.246-1.894-2.949-.974-.722-2.174-1.082-3.599-1.082-2.147 0-3.77.758-4.87 2.273-1.082 1.515-1.623 3.382-1.623 5.601 0 2.453.577 4.383 1.732 5.79s2.733 2.11 4.735 2.11c1.641 0 2.949-.469 3.923-1.407.974-.956 1.56-2.336 1.759-4.14h2.543zM109.71 8.027v2.381a5.525 5.525 0 0 0-.595-.027c-.74 0-1.38.117-1.921.352-.541.216-.974.505-1.299.866-.307.361-.559.812-.758 1.353s-.334 1.082-.406 1.623a18.692 18.692 0 0 0-.081 1.84v5.899h-2.3V8.352h2.192v3.003c.92-2.219 2.643-3.328 5.168-3.328zM122.996 8.351l-5.98 15.748a13.083 13.083 0 0 1-.622 1.461 5.751 5.751 0 0 1-.731 1.164 2.544 2.544 0 0 1-1.136.92c-.433.198-.947.298-1.542.298-.451 0-1.019-.081-1.705-.244v-2.056c.667.198 1.163.298 1.488.298.758 0 1.299-.388 1.623-1.163l1.082-2.543-5.547-13.881h2.598l4.14 11.121 3.923-11.121h2.408zM127.136 8.351v1.975c1.01-1.605 2.58-2.408 4.708-2.408 1.948 0 3.49.658 4.627 1.975 1.154 1.317 1.732 3.103 1.732 5.357s-.568 4.059-1.705 5.412c-1.118 1.335-2.634 2.002-4.546 2.002-2.002 0-3.563-.767-4.681-2.3v7.333h-2.3V8.351h2.165zm4.356 1.489c-1.335 0-2.39.487-3.166 1.461-.758.956-1.136 2.282-1.136 3.977s.388 3.03 1.163 4.005c.794.956 1.867 1.434 3.22 1.434 1.317 0 2.354-.487 3.112-1.461s1.136-2.3 1.136-3.977c0-1.696-.388-3.021-1.164-3.977-.758-.974-1.813-1.461-3.166-1.461zM146.99 8.351v1.894h-2.787v9.037c.018.144.072.343.162.595.09.235.244.388.46.46s.523.108.92.108c.343 0 .758-.027 1.245-.081v1.975c-.649.072-1.236.108-1.759.108-.649 0-1.19-.072-1.623-.216s-.767-.307-1.001-.487c-.217-.18-.379-.496-.487-.947a7.294 7.294 0 0 1-.189-1.164 32.694 32.694 0 0 1-.027-1.596v-7.792h-2.354V8.351h2.354v-4.14h2.3v4.14h2.787zM150.654 9.948c1.227-1.335 2.895-2.002 5.006-2.002s3.752.64 4.925 1.921c1.172 1.281 1.758 3.076 1.758 5.384 0 2.363-.587 4.203-1.758 5.52-1.173 1.317-2.824 1.975-4.952 1.975s-3.797-.649-5.005-1.948c-1.209-1.299-1.813-3.103-1.813-5.412 0-2.291.613-4.104 1.84-5.439zm8.145 1.407c-.776-.992-1.841-1.488-3.194-1.488-1.352 0-2.426.496-3.22 1.488s-1.19 2.318-1.19 3.977c0 1.714.388 3.058 1.164 4.032.794.956 1.895 1.434 3.301 1.434 1.353 0 2.408-.487 3.166-1.461.776-.974 1.163-2.318 1.163-4.032 0-1.66-.396-2.976-1.19-3.95zM181.109 3.048l7.522 19.265h-2.84l-2.138-5.898h-8.09l-2.193 5.898h-2.705l7.576-19.265h2.868zm1.786 11.337-3.275-8.902-3.328 8.902h6.603zM192.323 8.351v1.975c1.01-1.605 2.58-2.408 4.707-2.408 1.949 0 3.491.658 4.628 1.975 1.154 1.317 1.731 3.103 1.731 5.357s-.568 4.059-1.704 5.412c-1.118 1.335-2.635 2.002-4.546 2.002-2.002 0-3.563-.767-4.681-2.3v7.333h-2.301V8.351h2.165zm4.357 1.489c-1.335 0-2.391.487-3.166 1.461-.757.956-1.137 2.282-1.137 3.977s.389 3.03 1.164 4.005c.794.956 1.867 1.434 3.22 1.434 1.317 0 2.354-.487 3.112-1.461s1.137-2.3 1.137-3.977c0-1.696-.389-3.021-1.164-3.977-.757-.974-1.813-1.461-3.165-1.461zM208.361 8.351v1.975c1.01-1.605 2.58-2.408 4.709-2.408 1.949 0 3.491.658 4.628 1.975 1.154 1.317 1.731 3.103 1.731 5.357s-.568 4.059-1.705 5.412c-1.118 1.335-2.633 2.002-4.546 2.002-2.002 0-3.563-.767-4.681-2.3v7.333h-2.299V8.351h2.164zm4.357 1.489c-1.335 0-2.389.487-3.165 1.461-.757.956-1.137 2.282-1.137 3.977s.389 3.03 1.164 4.005c.792.956 1.867 1.434 3.22 1.434 1.317 0 2.353-.487 3.112-1.461.757-.974 1.135-2.3 1.135-3.977 0-1.696-.387-3.021-1.163-3.977-.757-.974-1.813-1.461-3.166-1.461z"/></symbol><symbol id="icon-logo-header_mobile" viewBox="0 0 227 32"><path fill="#fff" style="fill:var(--color1,#fff)" d="M32.779 19.347a6.508 6.508 0 0 1 5.047-2.391c1.879 0 3.573.795 4.763 2.067L57.921 5.881a3.913 3.913 0 1 1 2.085 1.725l-16.019 13.73a6.522 6.522 0 1 1-12.442.377L8.822 8.988a5.217 5.217 0 1 1 1.394-2.276l22.562 12.635zM102.913 14.002c-.224 2.516-1.099 4.481-2.627 5.898-1.509 1.398-3.503 2.096-5.981 2.096-2.832 0-5.078-.932-6.736-2.795-1.658-1.882-2.487-4.416-2.487-7.602 0-2.981.829-5.46 2.487-7.435 1.677-1.994 3.988-2.991 6.932-2.991 2.106 0 3.959.568 5.562 1.705s2.497 2.711 2.683 4.724h-2.627c-.298-1.304-.95-2.32-1.957-3.047-1.006-.745-2.245-1.118-3.717-1.118-2.217 0-3.894.783-5.031 2.348-1.118 1.565-1.677 3.494-1.677 5.786 0 2.534.596 4.528 1.789 5.981s2.823 2.18 4.891 2.18c1.696 0 3.047-.484 4.053-1.453 1.006-.988 1.612-2.413 1.817-4.276h2.627zM113.33 6.763v2.46a5.613 5.613 0 0 0-.615-.028c-.764 0-1.426.121-1.985.363-.559.224-1.006.522-1.342.894-.317.373-.578.838-.783 1.398s-.345 1.118-.419 1.677a19.252 19.252 0 0 0-.084 1.901v6.093h-2.376V7.099h2.264v3.102c.95-2.292 2.73-3.438 5.339-3.438zM127.053 7.099l-6.177 16.267c-.242.652-.457 1.155-.643 1.509a5.917 5.917 0 0 1-.755 1.202 2.617 2.617 0 0 1-1.174.95c-.447.205-.978.307-1.593.307-.466 0-1.053-.084-1.761-.251v-2.124c.689.205 1.202.307 1.537.307.783 0 1.342-.401 1.677-1.202l1.118-2.627-5.73-14.338h2.683l4.277 11.488 4.053-11.488h2.487zM131.33 7.099v2.04c1.043-1.658 2.665-2.488 4.863-2.488 2.013 0 3.606.68 4.779 2.04 1.193 1.36 1.789 3.205 1.789 5.534s-.587 4.193-1.761 5.59c-1.155 1.379-2.721 2.068-4.696 2.068-2.068 0-3.68-.792-4.835-2.376v7.575h-2.376V7.097h2.236zm4.5 1.537c-1.379 0-2.469.503-3.27 1.509-.783.988-1.174 2.357-1.174 4.109s.401 3.13 1.202 4.137c.82.988 1.929 1.481 3.326 1.481 1.36 0 2.432-.503 3.214-1.509s1.174-2.376 1.174-4.109c0-1.752-.401-3.121-1.202-4.109-.783-1.006-1.873-1.509-3.27-1.509zM151.839 7.099v1.957h-2.879v9.335a3.1 3.1 0 0 0 .168.615c.093.242.251.401.475.475s.54.112.95.112c.354 0 .783-.028 1.286-.084v2.04c-.671.075-1.277.112-1.817.112-.671 0-1.23-.075-1.677-.224s-.792-.317-1.034-.503c-.224-.186-.391-.512-.503-.978a7.405 7.405 0 0 1-.195-1.202 33.194 33.194 0 0 1-.028-1.649v-8.05h-2.432V7.098h2.432V2.822h2.376v4.276h2.879zM155.624 8.748c1.267-1.379 2.991-2.068 5.171-2.068s3.876.662 5.087 1.984 1.817 3.177 1.817 5.562c0 2.441-.606 4.342-1.817 5.702s-2.916 2.04-5.115 2.04c-2.199 0-3.922-.671-5.171-2.012s-1.873-3.205-1.873-5.59c0-2.366.634-4.239 1.901-5.618zm8.413 1.453c-.801-1.025-1.901-1.537-3.298-1.537s-2.506.512-3.326 1.537c-.82 1.025-1.23 2.394-1.23 4.109 0 1.77.401 3.158 1.202 4.165.82.988 1.957 1.481 3.41 1.481 1.398 0 2.488-.503 3.27-1.509.801-1.006 1.202-2.394 1.202-4.165 0-1.714-.41-3.075-1.23-4.081zM187.083 1.62l7.77 19.901h-2.935l-2.208-6.093h-8.357l-2.264 6.093h-2.795L184.12 1.62h2.963zm1.845 11.712-3.382-9.196-3.438 9.196h6.82zM198.667 7.099v2.04c1.043-1.658 2.665-2.488 4.863-2.488 2.012 0 3.605.68 4.779 2.04 1.193 1.36 1.789 3.205 1.789 5.534s-.587 4.193-1.761 5.59c-1.155 1.379-2.72 2.068-4.695 2.068-2.068 0-3.68-.792-4.835-2.376v7.575h-2.376V7.097h2.236zm4.5 1.537c-1.379 0-2.469.503-3.27 1.509-.783.988-1.174 2.357-1.174 4.109s.401 3.13 1.202 4.137c.82.988 1.929 1.481 3.326 1.481 1.36 0 2.432-.503 3.214-1.509s1.174-2.376 1.174-4.109c0-1.752-.401-3.121-1.202-4.109-.783-1.006-1.873-1.509-3.27-1.509zM215.235 7.099v2.04c1.043-1.658 2.665-2.488 4.863-2.488 2.013 0 3.606.68 4.779 2.04 1.193 1.36 1.789 3.205 1.789 5.534s-.587 4.193-1.761 5.59c-1.155 1.379-2.721 2.068-4.696 2.068-2.068 0-3.68-.792-4.835-2.376v7.575h-2.376V7.097h2.236zm4.5 1.537c-1.379 0-2.469.503-3.27 1.509-.782.988-1.174 2.357-1.174 4.109s.401 3.13 1.202 4.137c.82.988 1.929 1.481 3.326 1.481 1.36 0 2.432-.503 3.214-1.509s1.174-2.376 1.174-4.109c0-1.752-.401-3.121-1.202-4.109-.783-1.006-1.873-1.509-3.27-1.509z"/></symbol><symbol id="icon-menu" viewBox="0 0 50 32"><path fill="#eaeaea" style="fill:var(--color2,#eaeaea)" d="M2.286 0H48a2.286 2.286 0 0 1 0 4.572H2.286a2.286 2.286 0 0 1 0-4.572zM2.286 13.714H48a2.286 2.286 0 0 1 0 4.572H2.286a2.286 2.286 0 0 1 0-4.572zM2.286 27.429H48a2.286 2.286 0 0 1 0 4.572H2.286a2.286 2.286 0 0 1 0-4.572z"/></symbol><symbol id="icon-facebook" viewBox="0 0 32 32"><path fill="#4068d1" style="fill:var(--color3,#4068d1);stroke:var(--color1,#fff)" stroke="#fff" stroke-width=".889" d="M30.789 15.617c0 8.38-6.793 15.172-15.172 15.172S.445 23.996.445 15.617C.445 7.237 7.238.445 15.617.445s15.172 6.793 15.172 15.172z"/><path fill="#fff" style="fill:var(--color1,#fff)" d="m18.03 9.78-1.612-.003c-1.813 0-2.985 1.202-2.985 3.062v1.412h-1.622a.254.254 0 0 0-.254.254v2.045c0 .14.114.254.254.254h1.622v5.163c0 .14.114.253.253.253h2.117c.14 0 .254-.113.254-.253v-5.163h1.897c.14 0 .253-.113.253-.253v-.001l.001-2.045a.254.254 0 0 0-.254-.254h-1.897v-1.197c0-.575.137-.868.886-.868h1.087a.254.254 0 0 0 .253-.253v-1.901a.253.253 0 0 0-.253-.253z"/></symbol><symbol id="icon-linkedin" viewBox="0 0 32 32"><path fill="#1a8bf3" style="fill:var(--color4,#1a8bf3);stroke:var(--color1,#fff)" stroke="#fff" stroke-width=".889" d="M31.556 15.617c0 8.38-6.793 15.172-15.172 15.172S1.212 23.996 1.212 15.617C1.212 7.237 8.005.445 16.384.445s15.172 6.793 15.172 15.172z"/><path fill="#fff" style="fill:var(--color1,#fff)" d="M13.564 12.892h-2.498a.201.201 0 0 0-.201.201v8.026a.2.2 0 0 0 .2.201h2.499c.111 0 .201-.09.201-.201v-8.027a.2.2 0 0 0-.201-.2zm-1.248-3.99a1.65 1.65 0 0 0-1.649 1.647 1.648 1.648 0 0 0 3.296 0 1.65 1.65 0 0 0-1.647-1.647zm7.602 3.791c-1.004 0-1.746.431-2.196.921v-.521a.201.201 0 0 0-.201-.201h-2.392a.201.201 0 0 0-.201.201v8.026c0 .111.09.201.201.201h2.492c.111 0 .201-.09.201-.201v-3.972c0-1.338.364-1.859 1.296-1.859 1.016 0 1.097.836 1.097 1.928v3.902c0 .111.09.201.201.201h2.493c.111 0 .201-.09.201-.201v-4.403c0-1.989-.38-4.024-3.193-4.024z"/></symbol><symbol id="icon-logo" viewBox="0 0 32 32"><path fill="#fff" style="fill:var(--color1,#fff)" d="M15.949 18.132a3.164 3.164 0 0 1 2.453-1.163h.004c.914 0 1.738.387 2.317 1.006l7.46-6.394a1.903 1.903 0 1 1 .358.444l.001.001-7.467 6.4a3.174 3.174 0 1 1-5.438.166l-.008.016-10.882-6.094a2.538 2.538 0 1 1 .222-.511l.005-.018 10.977 6.147z"/></symbol><symbol id="icon-twitter" viewBox="0 0 32 32"><path fill="#56bbf3" style="fill:var(--color5,#56bbf3);stroke:var(--color1,#fff)" stroke="#fff" stroke-width=".889" d="M31.107 15.617c0 8.38-6.793 15.172-15.172 15.172S.763 23.996.763 15.617C.763 7.237 7.556.445 15.935.445s15.172 6.793 15.172 15.172z"/><path fill="#fff" style="fill:var(--color1,#fff)" d="M23.111 11.422c-.458.205-.99.357-1.547.428l-.028.003a2.73 2.73 0 0 0 1.197-1.492l.005-.019a5.37 5.37 0 0 1-1.698.655l-.035.006a2.732 2.732 0 0 0-4.728 1.865v.004c0 .217.019.425.064.623a7.734 7.734 0 0 1-5.624-2.845l-.011-.014a2.737 2.737 0 0 0 .83 3.648l.01.006a2.688 2.688 0 0 1-1.248-.344l.014.007v.03a2.747 2.747 0 0 0 2.172 2.682l.018.003a2.717 2.717 0 0 1-.716.091c-.175 0-.352-.011-.518-.047a2.766 2.766 0 0 0 2.551 1.904h.004a5.458 5.458 0 0 1-3.384 1.166h-.005c-.224 0-.439-.01-.654-.037a7.626 7.626 0 0 0 4.168 1.227h.026-.001c5.031 0 7.78-4.167 7.78-7.778 0-.122-.004-.238-.01-.354.541-.39.996-.861 1.357-1.4l.012-.02z"/></symbol><symbol id="icon-youtube" viewBox="0 0 32 32"><path fill="#ff3030" style="fill:var(--color6,#ff3030);stroke:var(--color1,#fff)" stroke="#fff" stroke-width=".889" d="M31.238 15.617c0 8.38-6.793 15.172-15.172 15.172S.894 23.996.894 15.617C.894 7.237 7.687.445 16.066.445s15.172 6.793 15.172 15.172z"/><path fill="#fff" style="fill:var(--color1,#fff)" d="M21.737 12.373c-.449-.534-1.278-.752-2.862-.752h-5.749c-1.62 0-2.464.231-2.911.8-.436.555-.436 1.372-.436 2.501v2.155c0 2.19.517 3.301 3.348 3.301h5.749c1.373 0 2.135-.192 2.627-.663.506-.484.721-1.272.721-2.638v-2.155c0-1.191-.034-2.013-.485-2.55zm-3.97 3.925-2.611 1.364a.4.4 0 0 1-.588-.353V14.585a.401.401 0 0 1 .589-.354l-.002-.001 2.611 1.356a.402.402 0 0 1 .003.71l-.002.001z"/></symbol><symbol id="icon-close" viewBox="0 0 32 32"><path d="M31.708 25.708 22 16l9.708-9.708a1 1 0 0 0 0-1.414L27.122.292a1 1 0 0 0-1.414-.001L16 9.999 6.292.291a.998.998 0 0 0-1.414.001L.292 4.878a1 1 0 0 0 0 1.414L10 16 .292 25.708a.999.999 0 0 0 0 1.414l4.586 4.586a1 1 0 0 0 1.414 0L16 22l9.708 9.708a1 1 0 0 0 1.414 0l4.586-4.586a.999.999 0 0 0 0-1.414z"/></symbol></defs></svg>