<svg width="286" height="287" viewBox="0 0 286 287" fill="none" xmlns="http://www.w3.org/2000/svg">
<path d="M71.2516 67.3384C86.9573 36.1918 124.982 23.7359 156.072 39.5534L219.289 71.7162C250.222 87.4535 262.601 125.244 246.975 156.232L215.039 219.565C199.334 250.712 161.309 263.167 130.219 247.35L67.0014 215.187C36.0689 199.45 23.6898 161.66 39.316 130.671L71.2516 67.3384Z" fill="white"/>
<path d="M107.935 70.8489C126.961 51.6036 157.985 51.4253 177.231 70.4508L215.409 108.193C234.654 127.218 234.832 158.243 215.807 177.488L178.065 215.666C159.039 234.911 128.015 235.089 108.77 216.064L70.5916 178.322C51.3463 159.297 51.1681 128.272 70.1935 109.027L107.935 70.8489Z" fill="#0C293C"/>
<path d="M181.096 114.365L143.682 98.3305C142.927 98.0071 142.073 98.0071 141.318 98.3305L103.904 114.365C102.675 114.892 101.943 116.168 102.109 117.495L107.222 158.399C107.473 160.412 108.48 162.254 110.039 163.552L140.579 189.003C141.692 189.93 143.308 189.93 144.421 189.003L174.961 163.552C176.52 162.254 177.527 160.412 177.778 158.399L182.891 117.495C183.057 116.168 182.325 114.892 181.096 114.365Z" stroke="url(#paint0_linear_98_44)" stroke-width="4" stroke-linecap="round"/>
<path d="M126 144L142.069 160.069C142.292 160.292 142.663 160.255 142.838 159.993L164.5 127.5" stroke="url(#paint1_linear_98_44)" stroke-width="4" stroke-linecap="round"/>
<defs>
<linearGradient id="paint0_linear_98_44" x1="140.918" y1="187.915" x2="140.918" y2="99.9911" gradientUnits="userSpaceOnUse">
<stop offset="0.1961" stop-color="#55CBF2" stop-opacity="0"/>
<stop offset="1" stop-color="#55CBF2"/>
</linearGradient>
<linearGradient id="paint1_linear_98_44" x1="143" y1="111" x2="143" y2="162.5" gradientUnits="userSpaceOnUse">
<stop offset="0.1961" stop-color="#55CBF2" stop-opacity="0"/>
<stop offset="1" stop-color="#55CBF2"/>
</linearGradient>
</defs>
</svg>
