<svg aria-hidden="true" style="position: absolute; width: 0; height: 0; overflow: hidden;" version="1.1" xmlns="http://www.w3.org/2000/svg" xmlns:xlink="http://www.w3.org/1999/xlink">
<defs>
<symbol id="icon-left" viewBox="0 0 31 32">
<path fill="#fff" style="fill: var(--color1, #fff)" d="M1.252 14.586c-0.781 0.781-0.781 2.047 0 2.829l12.728 12.728c0.781 0.781 2.047 0.781 2.828 0s0.781-2.047 0-2.828l-11.314-11.314 11.314-11.314c0.781-0.781 0.781-2.047 0-2.828s-2.047-0.781-2.828 0l-12.728 12.728zM30.667 14h-28v4h28v-4z"></path>
</symbol>
<symbol id="icon-right" viewBox="0 0 31 32">
<path fill="#fff" style="fill: var(--color1, #fff)" d="M29.414 17.414c0.781-0.781 0.781-2.047 0-2.829l-12.728-12.728c-0.781-0.781-2.047-0.781-2.828 0s-0.781 2.047 0 2.828l11.314 11.314-11.314 11.314c-0.781 0.781-0.781 2.047 0 2.828s2.047 0.781 2.828 0l12.728-12.728zM0 18h28v-4h-28v4z"></path>
</symbol>
<symbol id="icon-logo-footer_desctop" viewBox="0 0 229 32">
<path fill="#fff" style="fill: var(--color1, #fff)" d="M33.079 20.422c1.207-1.473 3.040-2.413 5.093-2.413 1.896 0 3.605 0.802 4.806 2.085l15.473-13.262c-0.34-0.583-0.535-1.262-0.535-1.986 0-2.181 1.768-3.949 3.949-3.949s3.949 1.768 3.949 3.949-1.768 3.949-3.949 3.949c-1.030 0-1.967-0.394-2.67-1.040l-15.487 13.274c0.661 1.026 1.045 2.249 1.045 3.561 0 3.635-2.947 6.581-6.581 6.581s-6.581-2.947-6.581-6.581c0-1.155 0.297-2.241 0.82-3.184l-22.569-12.639c-0.906 1.589-2.616 2.66-4.577 2.66-2.908 0-5.265-2.357-5.265-5.265s2.357-5.265 5.265-5.265c2.908 0 5.265 2.357 5.265 5.265 0 0.524-0.077 1.031-0.219 1.509l22.768 12.75z"></path>
<path fill="#fff" style="fill: var(--color1, #fff)" d="M103.855 15.028c-0.226 2.539-1.109 4.522-2.651 5.951-1.523 1.41-3.535 2.115-6.036 2.115-2.858 0-5.124-0.94-6.798-2.821-1.673-1.899-2.51-4.457-2.51-7.672 0-3.009 0.837-5.51 2.51-7.503 1.692-2.012 4.024-3.018 6.995-3.018 2.125 0 3.996 0.574 5.613 1.721s2.52 2.736 2.708 4.767h-2.651c-0.301-1.316-0.959-2.341-1.974-3.074-1.015-0.752-2.266-1.128-3.751-1.128-2.238 0-3.93 0.79-5.077 2.369-1.128 1.58-1.692 3.526-1.692 5.839 0 2.557 0.602 4.569 1.805 6.036s2.849 2.2 4.936 2.2c1.711 0 3.075-0.489 4.090-1.467 1.015-0.997 1.627-2.435 1.833-4.316h2.651z"></path>
<path fill="#fff" style="fill: var(--color1, #fff)" d="M114.366 7.723v2.482c-0.169-0.019-0.376-0.028-0.62-0.028-0.771 0-1.439 0.122-2.003 0.367-0.564 0.226-1.015 0.527-1.354 0.903-0.32 0.376-0.583 0.846-0.79 1.41s-0.348 1.128-0.423 1.692c-0.056 0.564-0.085 1.203-0.085 1.918v6.149h-2.397v-14.554h2.285v3.131c0.959-2.313 2.755-3.469 5.387-3.469z"></path>
<path fill="#fff" style="fill: var(--color1, #fff)" d="M128.216 8.062l-6.233 16.416c-0.245 0.658-0.461 1.166-0.649 1.523-0.169 0.376-0.423 0.78-0.761 1.213-0.32 0.451-0.715 0.771-1.185 0.959-0.452 0.207-0.987 0.31-1.608 0.31-0.47 0-1.062-0.085-1.777-0.254v-2.144c0.696 0.207 1.213 0.31 1.551 0.31 0.79 0 1.354-0.404 1.692-1.213l1.128-2.651-5.782-14.47h2.708l4.315 11.593 4.090-11.593h2.51z"></path>
<path fill="#fff" style="fill: var(--color1, #fff)" d="M132.531 8.062v2.059c1.054-1.674 2.689-2.51 4.908-2.51 2.031 0 3.639 0.686 4.824 2.059 1.203 1.373 1.805 3.234 1.805 5.585s-0.593 4.231-1.777 5.641c-1.166 1.392-2.746 2.087-4.738 2.087-2.088 0-3.714-0.799-4.881-2.398v7.644h-2.398v-20.167h2.257zM137.073 9.613c-1.391 0-2.491 0.508-3.3 1.523-0.791 0.997-1.185 2.379-1.185 4.146s0.404 3.159 1.212 4.175c0.827 0.997 1.946 1.495 3.356 1.495 1.374 0 2.455-0.508 3.244-1.523 0.791-1.015 1.185-2.398 1.185-4.146 0-1.767-0.404-3.15-1.214-4.146-0.789-1.015-1.889-1.523-3.3-1.523z"></path>
<path fill="#fff" style="fill: var(--color1, #fff)" d="M153.228 8.062v1.974h-2.905v8.49c0 0.47 0 0.78 0 0.931 0.019 0.15 0.076 0.357 0.169 0.621 0.094 0.244 0.254 0.404 0.479 0.479 0.226 0.075 0.546 0.113 0.96 0.113 0.357 0 0.789-0.028 1.297-0.085v2.059c-0.677 0.075-1.287 0.113-1.833 0.113-0.677 0-1.241-0.075-1.692-0.226-0.45-0.151-0.799-0.32-1.043-0.508-0.225-0.188-0.395-0.517-0.507-0.987-0.114-0.489-0.179-0.893-0.198-1.213-0.019-0.338-0.028-0.893-0.028-1.664 0-0.056 0-0.094 0-0.113 0-0.038 0-0.085 0-0.141s0-0.103 0-0.141v-7.728h-2.453v-1.974h2.453v-4.316h2.398v4.316h2.905z"></path>
<path fill="#fff" style="fill: var(--color1, #fff)" d="M157.048 9.726c1.279-1.392 3.019-2.087 5.218-2.087s3.911 0.668 5.134 2.003c1.222 1.335 1.832 3.206 1.832 5.613 0 2.463-0.61 4.381-1.832 5.754-1.223 1.373-2.943 2.059-5.163 2.059-2.219 0-3.957-0.677-5.217-2.031s-1.89-3.234-1.89-5.641c0-2.388 0.64-4.278 1.918-5.669zM165.538 11.192c-0.808-1.034-1.918-1.551-3.328-1.551s-2.529 0.517-3.356 1.551c-0.828 1.034-1.242 2.416-1.242 4.146 0 1.786 0.404 3.187 1.214 4.203 0.827 0.997 1.975 1.495 3.441 1.495 1.41 0 2.51-0.508 3.301-1.523 0.808-1.015 1.212-2.416 1.212-4.203 0-1.73-0.414-3.103-1.241-4.118z"></path>
<path fill="#fff" style="fill: var(--color1, #fff)" d="M188.795 2.533l7.841 20.083h-2.962l-2.228-6.149h-8.434l-2.285 6.149h-2.82l7.897-20.083h2.99zM190.657 14.352l-3.413-9.28-3.469 9.28h6.882z"></path>
<path fill="#fff" style="fill: var(--color1, #fff)" d="M200.485 8.062v2.059c1.054-1.674 2.689-2.51 4.908-2.51 2.031 0 3.639 0.686 4.824 2.059 1.203 1.373 1.805 3.234 1.805 5.585s-0.593 4.231-1.778 5.641c-1.165 1.392-2.745 2.087-4.738 2.087-2.087 0-3.713-0.799-4.879-2.398v7.644h-2.398v-20.167h2.257zM205.026 9.613c-1.391 0-2.492 0.508-3.301 1.523-0.789 0.997-1.184 2.379-1.184 4.146s0.404 3.159 1.212 4.175c0.827 0.997 1.946 1.495 3.356 1.495 1.372 0 2.455-0.508 3.244-1.523s1.184-2.398 1.184-4.146c0-1.767-0.404-3.15-1.212-4.146-0.789-1.015-1.889-1.523-3.3-1.523z"></path>
<path fill="#fff" style="fill: var(--color1, #fff)" d="M217.204 8.062v2.059c1.054-1.674 2.689-2.51 4.908-2.51 2.031 0 3.639 0.686 4.824 2.059 1.203 1.373 1.805 3.234 1.805 5.585s-0.593 4.231-1.777 5.641c-1.166 1.392-2.746 2.087-4.738 2.087-2.088 0-3.714-0.799-4.881-2.398v7.644h-2.398v-20.167h2.257zM221.746 9.613c-1.391 0-2.491 0.508-3.3 1.523-0.791 0.997-1.185 2.379-1.185 4.146s0.404 3.159 1.212 4.175c0.827 0.997 1.946 1.495 3.356 1.495 1.374 0 2.455-0.508 3.244-1.523 0.791-1.015 1.185-2.398 1.185-4.146 0-1.767-0.404-3.15-1.214-4.146-0.789-1.015-1.889-1.523-3.3-1.523z"></path>
</symbol>
<symbol id="icon-logo-footer_mobile" viewBox="0 0 227 32">
<path fill="#fff" style="fill: var(--color1, #fff)" d="M32.856 19.993c1.199-1.463 3.020-2.397 5.059-2.397 1.884 0 3.581 0.797 4.774 2.071l15.369-13.173c-0.338-0.579-0.531-1.253-0.531-1.972 0-2.166 1.756-3.922 3.922-3.922s3.922 1.756 3.922 3.922c0 2.166-1.756 3.922-3.922 3.922-0.868 0-1.671-0.282-2.321-0.76l-15.494 13.28c0.521 0.939 0.818 2.019 0.818 3.169 0 3.61-2.927 6.537-6.537 6.537s-6.537-2.927-6.537-6.537c0-0.997 0.223-1.941 0.622-2.786l-22.449-12.571c-0.942 1.379-2.526 2.283-4.321 2.283-2.888 0-5.23-2.341-5.23-5.23s2.341-5.23 5.23-5.23c2.888 0 5.23 2.341 5.23 5.23 0 0.521-0.076 1.024-0.218 1.499l22.615 12.664z"></path>
<path fill="#fff" style="fill: var(--color1, #fff)" d="M103.155 14.636c-0.224 2.521-1.102 4.492-2.633 5.911-1.513 1.401-3.511 2.101-5.996 2.101-2.839 0-5.089-0.934-6.752-2.802-1.662-1.886-2.493-4.427-2.493-7.62 0-2.988 0.831-5.472 2.493-7.452 1.681-1.998 3.997-2.998 6.948-2.998 2.111 0 3.969 0.57 5.575 1.709s2.503 2.718 2.69 4.735h-2.634c-0.299-1.307-0.952-2.325-1.961-3.054-1.008-0.747-2.251-1.121-3.726-1.121-2.223 0-3.904 0.784-5.043 2.353-1.121 1.569-1.681 3.502-1.681 5.799 0 2.54 0.598 4.539 1.793 5.995s2.83 2.185 4.903 2.185c1.7 0 3.054-0.486 4.062-1.457 1.009-0.99 1.616-2.419 1.821-4.287h2.633z"></path>
<path fill="#fff" style="fill: var(--color1, #fff)" d="M113.596 7.38v2.465c-0.168-0.019-0.374-0.028-0.616-0.028-0.766 0-1.429 0.121-1.989 0.364-0.56 0.224-1.008 0.523-1.345 0.896-0.317 0.374-0.579 0.84-0.784 1.401s-0.346 1.121-0.42 1.681c-0.056 0.56-0.084 1.195-0.084 1.905v6.108h-2.381v-14.456h2.269v3.11c0.953-2.297 2.736-3.446 5.351-3.446z"></path>
<path fill="#fff" style="fill: var(--color1, #fff)" d="M127.352 7.716l-6.192 16.305c-0.243 0.654-0.458 1.158-0.644 1.513-0.168 0.374-0.42 0.775-0.756 1.205-0.317 0.448-0.71 0.766-1.177 0.952-0.448 0.205-0.981 0.308-1.597 0.308-0.467 0-1.055-0.084-1.765-0.252v-2.129c0.691 0.205 1.205 0.308 1.541 0.308 0.784 0 1.345-0.402 1.681-1.205l1.121-2.633-5.743-14.372h2.689l4.287 11.515 4.062-11.515h2.493z"></path>
<path fill="#fff" style="fill: var(--color1, #fff)" d="M131.639 7.716v2.045c1.046-1.662 2.671-2.493 4.875-2.493 2.017 0 3.614 0.682 4.791 2.045 1.195 1.363 1.793 3.213 1.793 5.547s-0.588 4.202-1.765 5.603c-1.158 1.382-2.727 2.073-4.707 2.073-2.073 0-3.689-0.794-4.847-2.381v7.592h-2.381v-20.031h2.241zM136.149 9.257c-1.382 0-2.475 0.504-3.278 1.513-0.784 0.99-1.177 2.363-1.177 4.118s0.401 3.138 1.205 4.146c0.822 0.99 1.933 1.485 3.334 1.485 1.363 0 2.437-0.504 3.222-1.513s1.177-2.381 1.177-4.118c0-1.756-0.402-3.128-1.205-4.118-0.784-1.009-1.877-1.513-3.278-1.513z"></path>
<path fill="#fff" style="fill: var(--color1, #fff)" d="M152.196 7.716v1.961h-2.886v8.433c0 0.467 0 0.775 0 0.924 0.019 0.149 0.075 0.355 0.168 0.616 0.093 0.243 0.252 0.402 0.476 0.476s0.542 0.112 0.953 0.112c0.355 0 0.784-0.028 1.289-0.084v2.045c-0.672 0.075-1.279 0.112-1.821 0.112-0.672 0-1.233-0.075-1.681-0.224s-0.794-0.318-1.037-0.504c-0.224-0.187-0.392-0.514-0.504-0.98-0.112-0.486-0.177-0.887-0.196-1.205-0.019-0.336-0.028-0.887-0.028-1.653 0-0.056 0-0.093 0-0.112 0-0.037 0-0.084 0-0.14s0-0.103 0-0.14v-7.676h-2.437v-1.961h2.437v-4.286h2.381v4.286h2.886z"></path>
<path fill="#fff" style="fill: var(--color1, #fff)" d="M155.99 9.369c1.27-1.382 2.998-2.073 5.183-2.073s3.885 0.663 5.099 1.989 1.821 3.184 1.821 5.575c0 2.447-0.606 4.352-1.821 5.715s-2.923 2.045-5.126 2.045c-2.204 0-3.932-0.672-5.183-2.017s-1.877-3.213-1.877-5.603c0-2.372 0.635-4.249 1.905-5.631zM164.422 10.826c-0.803-1.027-1.904-1.541-3.306-1.541-1.4 0-2.512 0.514-3.334 1.541s-1.233 2.4-1.233 4.118c0 1.774 0.402 3.166 1.205 4.174 0.822 0.99 1.961 1.485 3.418 1.485 1.402 0 2.494-0.504 3.278-1.513 0.803-1.008 1.205-2.4 1.205-4.174 0-1.718-0.411-3.082-1.234-4.090z"></path>
<path fill="#fff" style="fill: var(--color1, #fff)" d="M187.523 2.225l7.789 19.947h-2.942l-2.213-6.108h-8.376l-2.27 6.108h-2.802l7.845-19.947h2.97zM189.373 13.963l-3.39-9.217-3.446 9.217h6.837z"></path>
<path fill="#fff" style="fill: var(--color1, #fff)" d="M199.134 7.716v2.045c1.046-1.662 2.67-2.493 4.875-2.493 2.016 0 3.613 0.682 4.79 2.045 1.195 1.363 1.794 3.213 1.794 5.547s-0.589 4.202-1.766 5.603c-1.157 1.382-2.726 2.073-4.706 2.073-2.074 0-3.69-0.794-4.848-2.381v7.592h-2.381v-20.031h2.242zM203.645 9.257c-1.382 0-2.475 0.504-3.278 1.513-0.784 0.99-1.176 2.363-1.176 4.118s0.402 3.138 1.205 4.146c0.822 0.99 1.933 1.485 3.334 1.485 1.363 0 2.437-0.504 3.221-1.513s1.178-2.381 1.178-4.118c0-1.756-0.402-3.128-1.205-4.118-0.786-1.009-1.877-1.513-3.278-1.513z"></path>
<path fill="#fff" style="fill: var(--color1, #fff)" d="M215.741 7.716v2.045c1.046-1.662 2.672-2.493 4.875-2.493 2.018 0 3.614 0.682 4.79 2.045 1.195 1.363 1.794 3.213 1.794 5.547s-0.589 4.202-1.765 5.603c-1.158 1.382-2.726 2.073-4.707 2.073-2.074 0-3.688-0.794-4.846-2.381v7.592h-2.381v-20.031h2.24zM220.253 9.257c-1.382 0-2.475 0.504-3.278 1.513-0.784 0.99-1.178 2.363-1.178 4.118s0.402 3.138 1.205 4.146c0.822 0.99 1.934 1.485 3.334 1.485 1.363 0 2.437-0.504 3.222-1.513 0.784-1.009 1.176-2.381 1.176-4.118 0-1.756-0.402-3.128-1.205-4.118-0.784-1.009-1.877-1.513-3.277-1.513z"></path>
</symbol>
<symbol id="icon-logo-header_desktop" viewBox="0 0 219 32">
<path fill="#fff" style="fill: var(--color1, #fff)" d="M31.732 20.209c1.158-1.413 2.917-2.315 4.886-2.315 1.819 0 3.459 0.769 4.611 2.001l14.843-12.722c-0.326-0.56-0.513-1.21-0.513-1.905 0-2.092 1.696-3.788 3.788-3.788s3.788 1.696 3.788 3.788-1.696 3.788-3.788 3.788c-0.846 0-1.628-0.278-2.259-0.747l-14.957 12.82c0.51 0.911 0.801 1.961 0.801 3.079 0 3.487-2.827 6.313-6.314 6.313s-6.313-2.826-6.313-6.313c0-0.97 0.219-1.889 0.61-2.71l-21.678-12.14c-0.908 1.341-2.444 2.223-4.186 2.223-2.789 0-5.051-2.261-5.051-5.051s2.261-5.051 5.051-5.051c2.789 0 5.051 2.261 5.051 5.051 0 0.503-0.074 0.989-0.211 1.448l21.841 12.231z"></path>
<path fill="#fff" style="fill: var(--color1, #fff)" d="M99.626 15.035c-0.216 2.435-1.064 4.338-2.543 5.709-1.461 1.353-3.391 2.029-5.79 2.029-2.742 0-4.915-0.902-6.521-2.706-1.605-1.822-2.408-4.275-2.408-7.36 0-2.886 0.803-5.285 2.408-7.197 1.623-1.93 3.86-2.895 6.71-2.895 2.038 0 3.833 0.55 5.384 1.65s2.417 2.625 2.598 4.573h-2.543c-0.289-1.263-0.92-2.246-1.894-2.949-0.974-0.722-2.174-1.082-3.599-1.082-2.147 0-3.77 0.758-4.87 2.273-1.082 1.515-1.623 3.382-1.623 5.601 0 2.453 0.577 4.383 1.732 5.79s2.733 2.11 4.735 2.11c1.641 0 2.949-0.469 3.923-1.407 0.974-0.956 1.56-2.336 1.759-4.14h2.543z"></path>
<path fill="#fff" style="fill: var(--color1, #fff)" d="M109.71 8.027v2.381c-0.162-0.018-0.361-0.027-0.595-0.027-0.74 0-1.38 0.117-1.921 0.352-0.541 0.216-0.974 0.505-1.299 0.866-0.307 0.361-0.559 0.812-0.758 1.353s-0.334 1.082-0.406 1.623c-0.054 0.541-0.081 1.154-0.081 1.84v5.899h-2.3v-13.962h2.192v3.003c0.92-2.219 2.643-3.328 5.168-3.328z"></path>
<path fill="#fff" style="fill: var(--color1, #fff)" d="M122.996 8.351l-5.98 15.748c-0.234 0.631-0.442 1.118-0.622 1.461-0.162 0.361-0.406 0.749-0.731 1.164-0.307 0.433-0.686 0.739-1.136 0.92-0.433 0.198-0.947 0.298-1.542 0.298-0.451 0-1.019-0.081-1.705-0.244v-2.056c0.667 0.198 1.163 0.298 1.488 0.298 0.758 0 1.299-0.388 1.623-1.163l1.082-2.543-5.547-13.881h2.598l4.14 11.121 3.923-11.121h2.408z"></path>
<path fill="#fff" style="fill: var(--color1, #fff)" d="M127.136 8.351v1.975c1.010-1.605 2.58-2.408 4.708-2.408 1.948 0 3.49 0.658 4.627 1.975 1.154 1.317 1.732 3.103 1.732 5.357s-0.568 4.059-1.705 5.412c-1.118 1.335-2.634 2.002-4.546 2.002-2.002 0-3.563-0.767-4.681-2.3v7.333h-2.3v-19.346h2.165zM131.492 9.84c-1.335 0-2.39 0.487-3.166 1.461-0.758 0.956-1.136 2.282-1.136 3.977s0.388 3.030 1.163 4.005c0.794 0.956 1.867 1.434 3.22 1.434 1.317 0 2.354-0.487 3.112-1.461s1.136-2.3 1.136-3.977c0-1.696-0.388-3.021-1.164-3.977-0.758-0.974-1.813-1.461-3.166-1.461z"></path>
<path fill="#fff" style="fill: var(--color1, #fff)" d="M146.99 8.351v1.894h-2.787v8.144c0 0.451 0 0.749 0 0.893 0.018 0.144 0.072 0.343 0.162 0.595 0.090 0.235 0.244 0.388 0.46 0.46s0.523 0.108 0.92 0.108c0.343 0 0.758-0.027 1.245-0.081v1.975c-0.649 0.072-1.236 0.108-1.759 0.108-0.649 0-1.19-0.072-1.623-0.216s-0.767-0.307-1.001-0.487c-0.217-0.18-0.379-0.496-0.487-0.947-0.108-0.469-0.171-0.857-0.189-1.164-0.018-0.325-0.027-0.857-0.027-1.596 0-0.054 0-0.090 0-0.108 0-0.036 0-0.081 0-0.135s0-0.099 0-0.135v-7.414h-2.354v-1.894h2.354v-4.14h2.3v4.14h2.787z"></path>
<path fill="#fff" style="fill: var(--color1, #fff)" d="M150.654 9.948c1.227-1.335 2.895-2.002 5.006-2.002s3.752 0.64 4.925 1.921c1.172 1.281 1.758 3.076 1.758 5.384 0 2.363-0.587 4.203-1.758 5.52-1.173 1.317-2.824 1.975-4.952 1.975s-3.797-0.649-5.005-1.948c-1.209-1.299-1.813-3.103-1.813-5.412 0-2.291 0.613-4.104 1.84-5.439zM158.799 11.355c-0.776-0.992-1.841-1.488-3.194-1.488-1.352 0-2.426 0.496-3.22 1.488s-1.19 2.318-1.19 3.977c0 1.714 0.388 3.058 1.164 4.032 0.794 0.956 1.895 1.434 3.301 1.434 1.353 0 2.408-0.487 3.166-1.461 0.776-0.974 1.163-2.318 1.163-4.032 0-1.66-0.396-2.976-1.19-3.95z"></path>
<path fill="#fff" style="fill: var(--color1, #fff)" d="M181.109 3.048l7.522 19.265h-2.84l-2.138-5.898h-8.090l-2.193 5.898h-2.705l7.576-19.265h2.868zM182.895 14.385l-3.275-8.902-3.328 8.902h6.603z"></path>
<path fill="#fff" style="fill: var(--color1, #fff)" d="M192.323 8.351v1.975c1.010-1.605 2.58-2.408 4.707-2.408 1.949 0 3.491 0.658 4.628 1.975 1.154 1.317 1.731 3.103 1.731 5.357s-0.568 4.059-1.704 5.412c-1.118 1.335-2.635 2.002-4.546 2.002-2.002 0-3.563-0.767-4.681-2.3v7.333h-2.301v-19.346h2.165zM196.68 9.84c-1.335 0-2.391 0.487-3.166 1.461-0.757 0.956-1.137 2.282-1.137 3.977s0.389 3.030 1.164 4.005c0.794 0.956 1.867 1.434 3.22 1.434 1.317 0 2.354-0.487 3.112-1.461s1.137-2.3 1.137-3.977c0-1.696-0.389-3.021-1.164-3.977-0.757-0.974-1.813-1.461-3.165-1.461z"></path>
<path fill="#fff" style="fill: var(--color1, #fff)" d="M208.361 8.351v1.975c1.010-1.605 2.58-2.408 4.709-2.408 1.949 0 3.491 0.658 4.628 1.975 1.154 1.317 1.731 3.103 1.731 5.357s-0.568 4.059-1.705 5.412c-1.118 1.335-2.633 2.002-4.546 2.002-2.002 0-3.563-0.767-4.681-2.3v7.333h-2.299v-19.346h2.164zM212.718 9.84c-1.335 0-2.389 0.487-3.165 1.461-0.757 0.956-1.137 2.282-1.137 3.977s0.389 3.030 1.164 4.005c0.792 0.956 1.867 1.434 3.22 1.434 1.317 0 2.353-0.487 3.112-1.461 0.757-0.974 1.135-2.3 1.135-3.977 0-1.696-0.387-3.021-1.163-3.977-0.757-0.974-1.813-1.461-3.166-1.461z"></path>
</symbol>
<symbol id="icon-logo-header_mobile" viewBox="0 0 227 32">
<path fill="#fff" style="fill: var(--color1, #fff)" d="M32.779 19.347c1.196-1.46 3.013-2.391 5.047-2.391 1.879 0 3.573 0.795 4.763 2.067l15.332-13.142c-0.337-0.578-0.53-1.25-0.53-1.968 0-2.161 1.752-3.913 3.913-3.913s3.913 1.752 3.913 3.913-1.752 3.913-3.913 3.913c-0.455 0-0.892-0.078-1.298-0.22l-16.019 13.73c0.233 0.671 0.36 1.392 0.36 2.142 0 3.602-2.92 6.522-6.522 6.522s-6.522-2.92-6.522-6.522c0-0.612 0.084-1.204 0.242-1.765l-22.723-12.725c-0.937 0.896-2.207 1.446-3.606 1.446-2.881 0-5.217-2.336-5.217-5.217s2.336-5.217 5.217-5.217c2.881 0 5.217 2.336 5.217 5.217 0 0.52-0.076 1.022-0.217 1.495l22.562 12.635z"></path>
<path fill="#fff" style="fill: var(--color1, #fff)" d="M102.913 14.002c-0.224 2.516-1.099 4.481-2.627 5.898-1.509 1.398-3.503 2.096-5.981 2.096-2.832 0-5.078-0.932-6.736-2.795-1.658-1.882-2.487-4.416-2.487-7.602 0-2.981 0.829-5.46 2.487-7.435 1.677-1.994 3.988-2.991 6.932-2.991 2.106 0 3.959 0.568 5.562 1.705s2.497 2.711 2.683 4.724h-2.627c-0.298-1.304-0.95-2.32-1.957-3.047-1.006-0.745-2.245-1.118-3.717-1.118-2.217 0-3.894 0.783-5.031 2.348-1.118 1.565-1.677 3.494-1.677 5.786 0 2.534 0.596 4.528 1.789 5.981s2.823 2.18 4.891 2.18c1.696 0 3.047-0.484 4.053-1.453 1.006-0.988 1.612-2.413 1.817-4.276h2.627z"></path>
<path fill="#fff" style="fill: var(--color1, #fff)" d="M113.33 6.763v2.46c-0.168-0.019-0.373-0.028-0.615-0.028-0.764 0-1.426 0.121-1.985 0.363-0.559 0.224-1.006 0.522-1.342 0.894-0.317 0.373-0.578 0.838-0.783 1.398s-0.345 1.118-0.419 1.677c-0.056 0.559-0.084 1.193-0.084 1.901v6.093h-2.376v-14.422h2.264v3.102c0.95-2.292 2.73-3.438 5.339-3.438z"></path>
<path fill="#fff" style="fill: var(--color1, #fff)" d="M127.053 7.099l-6.177 16.267c-0.242 0.652-0.457 1.155-0.643 1.509-0.167 0.373-0.419 0.773-0.755 1.202-0.317 0.447-0.708 0.764-1.174 0.95-0.447 0.205-0.978 0.307-1.593 0.307-0.466 0-1.053-0.084-1.761-0.251v-2.124c0.689 0.205 1.202 0.307 1.537 0.307 0.783 0 1.342-0.401 1.677-1.202l1.118-2.627-5.73-14.338h2.683l4.277 11.488 4.053-11.488h2.487z"></path>
<path fill="#fff" style="fill: var(--color1, #fff)" d="M131.33 7.099v2.040c1.043-1.658 2.665-2.488 4.863-2.488 2.013 0 3.606 0.68 4.779 2.040 1.193 1.36 1.789 3.205 1.789 5.534s-0.587 4.193-1.761 5.59c-1.155 1.379-2.721 2.068-4.696 2.068-2.068 0-3.68-0.792-4.835-2.376v7.575h-2.376v-19.985h2.236zM135.83 8.636c-1.379 0-2.469 0.503-3.27 1.509-0.783 0.988-1.174 2.357-1.174 4.109s0.401 3.13 1.202 4.137c0.82 0.988 1.929 1.481 3.326 1.481 1.36 0 2.432-0.503 3.214-1.509s1.174-2.376 1.174-4.109c0-1.752-0.401-3.121-1.202-4.109-0.783-1.006-1.873-1.509-3.27-1.509z"></path>
<path fill="#fff" style="fill: var(--color1, #fff)" d="M151.839 7.099v1.957h-2.879v8.413c0 0.466 0 0.773 0 0.922 0.019 0.149 0.074 0.354 0.168 0.615 0.093 0.242 0.251 0.401 0.475 0.475s0.54 0.112 0.95 0.112c0.354 0 0.783-0.028 1.286-0.084v2.040c-0.671 0.075-1.277 0.112-1.817 0.112-0.671 0-1.23-0.075-1.677-0.224s-0.792-0.317-1.034-0.503c-0.224-0.186-0.391-0.512-0.503-0.978-0.112-0.484-0.177-0.885-0.195-1.202-0.019-0.335-0.028-0.885-0.028-1.649 0-0.056 0-0.093 0-0.112 0-0.037 0-0.084 0-0.14s0-0.102 0-0.14v-7.658h-2.432v-1.957h2.432v-4.276h2.376v4.276h2.879z"></path>
<path fill="#fff" style="fill: var(--color1, #fff)" d="M155.624 8.748c1.267-1.379 2.991-2.068 5.171-2.068s3.876 0.662 5.087 1.984 1.817 3.177 1.817 5.562c0 2.441-0.606 4.342-1.817 5.702s-2.916 2.040-5.115 2.040c-2.199 0-3.922-0.671-5.171-2.012s-1.873-3.205-1.873-5.59c0-2.366 0.634-4.239 1.901-5.618zM164.037 10.201c-0.801-1.025-1.901-1.537-3.298-1.537s-2.506 0.512-3.326 1.537c-0.82 1.025-1.23 2.394-1.23 4.109 0 1.77 0.401 3.158 1.202 4.165 0.82 0.988 1.957 1.481 3.41 1.481 1.398 0 2.488-0.503 3.27-1.509 0.801-1.006 1.202-2.394 1.202-4.165 0-1.714-0.41-3.075-1.23-4.081z"></path>
<path fill="#fff" style="fill: var(--color1, #fff)" d="M187.083 1.62l7.77 19.901h-2.935l-2.208-6.093h-8.357l-2.264 6.093h-2.795l7.826-19.901h2.963zM188.928 13.332l-3.382-9.196-3.438 9.196h6.82z"></path>
<path fill="#fff" style="fill: var(--color1, #fff)" d="M198.667 7.099v2.040c1.043-1.658 2.665-2.488 4.863-2.488 2.012 0 3.605 0.68 4.779 2.040 1.193 1.36 1.789 3.205 1.789 5.534s-0.587 4.193-1.761 5.59c-1.155 1.379-2.72 2.068-4.695 2.068-2.068 0-3.68-0.792-4.835-2.376v7.575h-2.376v-19.985h2.236zM203.167 8.636c-1.379 0-2.469 0.503-3.27 1.509-0.783 0.988-1.174 2.357-1.174 4.109s0.401 3.13 1.202 4.137c0.82 0.988 1.929 1.481 3.326 1.481 1.36 0 2.432-0.503 3.214-1.509s1.174-2.376 1.174-4.109c0-1.752-0.401-3.121-1.202-4.109-0.783-1.006-1.873-1.509-3.27-1.509z"></path>
<path fill="#fff" style="fill: var(--color1, #fff)" d="M215.235 7.099v2.040c1.043-1.658 2.665-2.488 4.863-2.488 2.013 0 3.606 0.68 4.779 2.040 1.193 1.36 1.789 3.205 1.789 5.534s-0.587 4.193-1.761 5.59c-1.155 1.379-2.721 2.068-4.696 2.068-2.068 0-3.68-0.792-4.835-2.376v7.575h-2.376v-19.985h2.236zM219.735 8.636c-1.379 0-2.469 0.503-3.27 1.509-0.782 0.988-1.174 2.357-1.174 4.109s0.401 3.13 1.202 4.137c0.82 0.988 1.929 1.481 3.326 1.481 1.36 0 2.432-0.503 3.214-1.509s1.174-2.376 1.174-4.109c0-1.752-0.401-3.121-1.202-4.109-0.783-1.006-1.873-1.509-3.27-1.509z"></path>
</symbol>
<symbol id="icon-menu" viewBox="0 0 50 32">
<path fill="#eaeaea" style="fill: var(--color2, #eaeaea)" d="M2.286 0h45.714c1.262 0 2.286 1.023 2.286 2.286s-1.023 2.286-2.286 2.286h-45.714c-1.262 0-2.286-1.023-2.286-2.286s1.023-2.286 2.286-2.286z"></path>
<path fill="#eaeaea" style="fill: var(--color2, #eaeaea)" d="M2.286 13.714h45.714c1.262 0 2.286 1.023 2.286 2.286s-1.023 2.286-2.286 2.286h-45.714c-1.262 0-2.286-1.023-2.286-2.286s1.023-2.286 2.286-2.286z"></path>
<path fill="#eaeaea" style="fill: var(--color2, #eaeaea)" d="M2.286 27.429h45.714c1.262 0 2.286 1.023 2.286 2.286s-1.023 2.286-2.286 2.286h-45.714c-1.262 0-2.286-1.023-2.286-2.286s1.023-2.286 2.286-2.286z"></path>
</symbol>
<symbol id="icon-facebook" viewBox="0 0 32 32">
<path fill="#4068d1" style="fill: var(--color3, #4068d1); stroke: var(--color1, #fff)" stroke="#fff" stroke-linejoin="miter" stroke-linecap="butt" stroke-miterlimit="4" stroke-width="0.8889" d="M30.789 15.617c0 8.38-6.793 15.172-15.172 15.172s-15.172-6.793-15.172-15.172c0-8.38 6.793-15.172 15.172-15.172s15.172 6.793 15.172 15.172z"></path>
<path fill="#fff" style="fill: var(--color1, #fff)" d="M18.030 9.78l-1.612-0.003c-1.813 0-2.985 1.202-2.985 3.062v1.412h-1.622c-0.14 0-0.254 0.114-0.254 0.254v0 2.045c0 0.14 0.114 0.254 0.254 0.254h1.622v5.163c0 0.14 0.114 0.253 0.253 0.253h2.117c0 0 0 0 0 0 0.14 0 0.254-0.113 0.254-0.253v-5.163h1.897c0 0 0 0 0 0 0.14 0 0.253-0.113 0.253-0.253 0-0 0-0.001 0-0.001v0l0.001-2.045c0-0.14-0.114-0.254-0.254-0.254v0h-1.897v-1.197c0-0.575 0.137-0.868 0.886-0.868h1.087c0.14-0.001 0.253-0.114 0.253-0.253v-1.901c-0-0.14-0.114-0.253-0.253-0.253h-0z"></path>
</symbol>
<symbol id="icon-linkedin" viewBox="0 0 32 32">
<path fill="#1a8bf3" style="fill: var(--color4, #1a8bf3); stroke: var(--color1, #fff)" stroke="#fff" stroke-linejoin="miter" stroke-linecap="butt" stroke-miterlimit="4" stroke-width="0.8889" d="M31.556 15.617c0 8.38-6.793 15.172-15.172 15.172s-15.172-6.793-15.172-15.172c0-8.38 6.793-15.172 15.172-15.172s15.172 6.793 15.172 15.172z"></path>
<path fill="#fff" style="fill: var(--color1, #fff)" d="M13.564 12.892h-2.498c-0.111 0-0.201 0.090-0.201 0.201v0 8.026c0 0.111 0.089 0.201 0.2 0.201h2.498c0 0 0.001 0 0.001 0 0.111 0 0.201-0.090 0.201-0.201 0 0 0 0 0 0v0-8.027c-0.001-0.111-0.090-0.2-0.201-0.2 0 0 0 0 0 0v0zM12.316 8.902c-0.91 0.001-1.647 0.737-1.649 1.647v0c0 0.908 0.74 1.647 1.649 1.647s1.646-0.738 1.647-1.647v-0c-0.001-0.909-0.738-1.646-1.647-1.647h-0zM19.918 12.693c-1.004 0-1.746 0.431-2.196 0.921v-0.521c0-0.111-0.090-0.201-0.201-0.201v0h-2.392c-0.111 0-0.201 0.090-0.201 0.201v8.026c0 0.111 0.090 0.201 0.201 0.201h2.492c0.111 0 0.201-0.090 0.201-0.201v0-3.972c0-1.338 0.364-1.859 1.296-1.859 1.016 0 1.097 0.836 1.097 1.928v3.902c0 0.111 0.090 0.201 0.201 0.201h2.493c0.111 0 0.201-0.090 0.201-0.201v0-4.403c0-1.989-0.38-4.024-3.193-4.024z"></path>
</symbol>
<symbol id="icon-logo" viewBox="0 0 32 32">
<path fill="#fff" style="fill: var(--color1, #fff)" d="M15.949 18.132c0.585-0.712 1.466-1.163 2.453-1.163 0.001 0 0.002 0 0.004 0h-0c0.914 0 1.738 0.387 2.317 1.006l7.46-6.394c-0.162-0.274-0.258-0.605-0.258-0.958 0-1.052 0.852-1.904 1.904-1.904s1.904 0.852 1.904 1.904c0 1.052-0.852 1.904-1.904 1.904-0.497 0-0.949-0.19-1.288-0.502l0.001 0.001-7.467 6.4c0.316 0.485 0.504 1.078 0.504 1.716 0 1.752-1.421 3.173-3.173 3.173s-3.173-1.421-3.173-3.173c0-0.563 0.147-1.092 0.404-1.55l-0.008 0.016-10.882-6.094c-0.445 0.771-1.266 1.281-2.205 1.281-1.402 0-2.538-1.136-2.538-2.538s1.136-2.538 2.538-2.538c1.402 0 2.538 1.136 2.538 2.538 0 0.26-0.039 0.51-0.111 0.746l0.005-0.018 10.977 6.147z"></path>
</symbol>
<symbol id="icon-twitter" viewBox="0 0 32 32">
<path fill="#56bbf3" style="fill: var(--color5, #56bbf3); stroke: var(--color1, #fff)" stroke="#fff" stroke-linejoin="miter" stroke-linecap="butt" stroke-miterlimit="4" stroke-width="0.8889" d="M31.107 15.617c0 8.38-6.793 15.172-15.172 15.172s-15.172-6.793-15.172-15.172c0-8.38 6.793-15.172 15.172-15.172s15.172 6.793 15.172 15.172z"></path>
<path fill="#fff" style="fill: var(--color1, #fff)" d="M23.111 11.422c-0.458 0.205-0.99 0.357-1.547 0.428l-0.028 0.003c0.567-0.34 0.992-0.866 1.197-1.492l0.005-0.019c-0.499 0.301-1.080 0.53-1.698 0.655l-0.035 0.006c-0.5-0.534-1.209-0.867-1.996-0.867-1.509 0-2.732 1.223-2.732 2.732 0 0.001 0 0.003 0 0.004v-0c0 0.217 0.019 0.425 0.064 0.623-2.278-0.115-4.283-1.199-5.624-2.845l-0.011-0.014c-0.234 0.395-0.373 0.871-0.373 1.38 0 0.943 0.477 1.775 1.203 2.268l0.010 0.006c-0.455-0.013-0.879-0.136-1.248-0.344l0.014 0.007v0.030c0.002 1.318 0.932 2.418 2.172 2.682l0.018 0.003c-0.222 0.061-0.465 0.091-0.716 0.091-0.175 0-0.352-0.011-0.518-0.047 0.364 1.093 1.364 1.873 2.551 1.904l0.004 0c-0.923 0.727-2.102 1.166-3.384 1.166-0.002 0-0.004 0-0.005 0h0c-0.224 0-0.439-0.010-0.654-0.037 1.178 0.769 2.62 1.227 4.168 1.227 0.009 0 0.017 0 0.026-0h-0.001c5.031 0 7.78-4.167 7.78-7.778 0-0.122-0.004-0.238-0.010-0.354 0.541-0.39 0.996-0.861 1.357-1.4l0.012-0.020z"></path>
</symbol>
<symbol id="icon-youtube" viewBox="0 0 32 32">
<path fill="#ff3030" style="fill: var(--color6, #ff3030); stroke: var(--color1, #fff)" stroke="#fff" stroke-linejoin="miter" stroke-linecap="butt" stroke-miterlimit="4" stroke-width="0.8889" d="M31.238 15.617c0 8.38-6.793 15.172-15.172 15.172s-15.172-6.793-15.172-15.172c0-8.38 6.793-15.172 15.172-15.172s15.172 6.793 15.172 15.172z"></path>
<path fill="#fff" style="fill: var(--color1, #fff)" d="M21.737 12.373c-0.449-0.534-1.278-0.752-2.862-0.752h-5.749c-1.62 0-2.464 0.231-2.911 0.8-0.436 0.555-0.436 1.372-0.436 2.501v2.155c0 2.19 0.517 3.301 3.348 3.301h5.749c1.373 0 2.135-0.192 2.627-0.663 0.506-0.484 0.721-1.272 0.721-2.638v-2.155c0-1.191-0.034-2.013-0.485-2.55zM17.767 16.298l-2.611 1.364c-0.054 0.029-0.119 0.047-0.188 0.047-0.221 0-0.4-0.179-0.4-0.4 0-0.001 0-0.002 0-0.002v0-2.72c0-0.001 0-0.001 0-0.002 0-0.221 0.179-0.401 0.401-0.401 0.068 0 0.132 0.017 0.188 0.047l-0.002-0.001 2.611 1.356c0.129 0.069 0.215 0.202 0.215 0.356s-0.086 0.287-0.212 0.354l-0.002 0.001z"></path>
</symbol>
<symbol id="icon-close" viewBox="0 0 32 32">
<path d="M31.708 25.708c-0-0-0-0-0-0l-9.708-9.708 9.708-9.708c0-0 0-0 0-0 0.105-0.105 0.18-0.227 0.229-0.357 0.133-0.356 0.057-0.771-0.229-1.057l-4.586-4.586c-0.286-0.286-0.702-0.361-1.057-0.229-0.13 0.048-0.252 0.124-0.357 0.228 0 0-0 0-0 0l-9.708 9.708-9.708-9.708c-0-0-0-0-0-0-0.105-0.104-0.227-0.18-0.357-0.228-0.356-0.133-0.771-0.057-1.057 0.229l-4.586 4.586c-0.286 0.286-0.361 0.702-0.229 1.057 0.049 0.13 0.124 0.252 0.229 0.357 0 0 0 0 0 0l9.708 9.708-9.708 9.708c-0 0-0 0-0 0-0.104 0.105-0.18 0.227-0.229 0.357-0.133 0.355-0.057 0.771 0.229 1.057l4.586 4.586c0.286 0.286 0.702 0.361 1.057 0.229 0.13-0.049 0.252-0.124 0.357-0.229 0-0 0-0 0-0l9.708-9.708 9.708 9.708c0 0 0 0 0 0 0.105 0.105 0.227 0.18 0.357 0.229 0.356 0.133 0.771 0.057 1.057-0.229l4.586-4.586c0.286-0.286 0.362-0.702 0.229-1.057-0.049-0.13-0.124-0.252-0.229-0.357z"></path>
</symbol>
</defs>
</svg>
